HIERARCHY
ROOT reference
{
  OFFSET 0 0 0
  CHANNELS 6 Xposition Yposition Zposition Zrotation Xrotation Yrotation
  JOINT Hips
  {
    OFFSET -1.93655 85.1432 160.345
    CHANNELS 6 Xposition Yposition Zposition Zrotation Xrotation Yrotation
    JOINT Spine
    {
      OFFSET 0 7.31558 0
      CHANNELS 6 Xposition Yposition Zposition Zrotation Xrotation Yrotation
      JOINT Spine1
      {
        OFFSET 0 21.7428 0
        CHANNELS 6 Xposition Yposition Zposition Zrotation Xrotation Yrotation
        JOINT Neck
        {
          OFFSET 0 21.6535 1.9685
          CHANNELS 6 Xposition Yposition Zposition Zrotation Xrotation Yrotation
          JOINT Head
          {
            OFFSET 0 12.49 -1.78429
            CHANNELS 6 Xposition Yposition Zposition Zrotation Xrotation Yrotation
            End Site
            {
              OFFSET 0 22.3036 0
            }
          }
        }
        JOINT LeftShoulder
        {
          OFFSET 3.56546 21.4407 -0.045508
          CHANNELS 6 Xposition Yposition Zposition Zrotation Xrotation Yrotation
          JOINT LeftArm
          {
            OFFSET 5.86532 0 0
            CHANNELS 6 Xposition Yposition Zposition Zrotation Xrotation Yrotation
            JOINT LeftForeArm
            {
              OFFSET 30.0831 0 0
              CHANNELS 6 Xposition Yposition Zposition Zrotation Xrotation Yrotation
              JOINT LeftHand
              {
                OFFSET 21.3133 0 0
                CHANNELS 6 Xposition Yposition Zposition Zrotation Xrotation Yrotation
                End Site
                {
                  OFFSET 13.3822 0 0
                }
              }
            }
          }
        }
        JOINT RightShoulder
        {
          OFFSET -3.55605 21.4407 -0.045508
          CHANNELS 6 Xposition Yposition Zposition Zrotation Xrotation Yrotation
          JOINT RightArm
          {
            OFFSET -5.86532 0 0
            CHANNELS 6 Xposition Yposition Zposition Zrotation Xrotation Yrotation
            JOINT RightForeArm
            {
              OFFSET -30.0831 0 0
              CHANNELS 6 Xposition Yposition Zposition Zrotation Xrotation Yrotation
              JOINT RightHand
              {
                OFFSET -21.3133 0 0
                CHANNELS 6 Xposition Yposition Zposition Zrotation Xrotation Yrotation
                End Site
                {
                  OFFSET -13.3822 0 0
                }
              }
            }
          }
        }
      }
    }
    JOINT LeftUpLeg
    {
      OFFSET 8.92144 0 0
      CHANNELS 6 Xposition Yposition Zposition Zrotation Xrotation Yrotation
      JOINT LeftLeg
      {
        OFFSET 0 -39.6329 0
        CHANNELS 6 Xposition Yposition Zposition Zrotation Xrotation Yrotation
        JOINT LeftFoot
        {
          OFFSET 0 -38.0584 0
          CHANNELS 6 Xposition Yposition Zposition Zrotation Xrotation Yrotation
          JOINT LeftToeBase
          {
            OFFSET 0 -5.79894 13.3822
            CHANNELS 6 Xposition Yposition Zposition Zrotation Xrotation Yrotation
            End Site
            {
              OFFSET 0 0 3.56858
            }
          }
        }
      }
    }
    JOINT RightUpLeg
    {
      OFFSET -8.92144 0 0
      CHANNELS 6 Xposition Yposition Zposition Zrotation Xrotation Yrotation
      JOINT RightLeg
      {
        OFFSET 0 -39.6329 0
        CHANNELS 6 Xposition Yposition Zposition Zrotation Xrotation Yrotation
        JOINT RightFoot
        {
          OFFSET 0 -38.0584 0
          CHANNELS 6 Xposition Yposition Zposition Zrotation Xrotation Yrotation
          JOINT RightToeBase
          {
            OFFSET 0 -5.79894 13.3822
            CHANNELS 6 Xposition Yposition Zposition Zrotation Xrotation Yrotation
            End Site
            {
              OFFSET 0 0 3.56858
            }
          }
        }
      }
    }
  }
}
MOTION
Frames:	4
Frame Time:	0.004
0 0 0 0 0 -0 -12.8881 76.8694 -205.004 -0.973395 -1.40337 8.0252 -3.55271e-015 7.31558 2.84217e-014 0.258932 -3.45724 0.0638381 -1.77636e-015 21.7428 2.84217e-014 1.27829 -4.72738 0.120075 0 21.6535 1.9685 -3.10171 17.8785 1.97418 3.55271e-015 12.49 -1.78429 -2.07623 -1.38151 1.68582 3.56546 21.4407 -0.045508 13.016 -2.50906 -5.75984 5.86532 -2.84217e-014 0 -18.6708 6.68669 1.70046 30.0831 0 2.84217e-014 -2.56825 1.56701 6.9856 21.3133 0 2.84217e-014 -3.26649 1.79108 -2.35989 -3.55605 21.4407 -0.045508 -12.0512 -1.05958 -4.66287 -5.86532 0 0 15.3337 4.3051 -0.10604 -30.0831 0 -2.84217e-014 -0.372778 5.14982 -3.58531 -21.3133 2.84217e-014 0 2.03516 5.21492 4.31147 8.92144 1.42109e-014 0 -0.057543 4.69529 -2.32826 0 -39.6329 0 -2.69325 0.236809 -0.74813 1.77636e-015 -38.0584 0 4.93595 -9.0291 5.49312 3.55271e-015 -5.79894 13.3822 4.41391e-032 1.59028e-015 -1.59028e-015 -8.92144 1.42109e-014 2.84217e-014 1.33567 7.55545 5.67271 3.55271e-015 -39.6329 0 3.08488 -2.07919 -3.24627 -3.55271e-015 -38.0584 2.84217e-014 -6.11758 -7.93122 -17.0955 7.10543e-015 -5.79894 13.3822 4.96962e-017 0 7.95139e-016 
0 0 0 0 0 -0 -12.8941 76.8694 -205.004 -0.971355 -1.41784 8.02525 1.77636e-015 7.31558 0 0.258918 -3.4454 0.0638373 1.77636e-015 21.7428 0 1.28784 -4.72738 0.120075 0 21.6535 1.9685 -3.10651 17.8716 1.99054 -3.55271e-015 12.49 -1.78429 -2.10572 -1.35505 1.69905 3.56546 21.4407 -0.045508 13.0058 -2.49022 -5.75975 5.86532 -2.84217e-014 0 -18.6745 6.66886 1.70039 30.0831 0 0 -2.55969 1.49991 6.9726 21.3133 0 2.84217e-014 -3.27089 1.72296 -2.37732 -3.55605 21.4407 -0.045508 -12.0618 -1.02407 -4.65421 -5.86532 2.84217e-014 0 15.3335 4.24352 -0.106031 -30.0831 0 0 -0.378792 5.14982 -3.58531 -21.3133 0 -2.84217e-014 2.05593 5.21496 4.30569 8.92144 0 0 -0.116364 4.76539 -2.19323 1.77636e-015 -39.6329 -5.68434e-014 -2.55926 0.104551 -0.603253 -1.77636e-015 -38.0584 0 4.82621 -8.98713 5.17575 -3.55271e-015 -5.79894 13.3822 -3.97569e-016 -7.95139e-016 3.18055e-015 -8.92144 0 2.84217e-014 1.33547 7.5668 5.6658 -3.55271e-015 -39.6329 2.84217e-014 3.08513 -2.07487 -3.24626 0 -38.0584 0 -6.10959 -7.94081 -17.0959 0 -5.79894 13.3822 -0 0 1.59028e-015 
0 0 0 0 0 -0 -12.8991 76.8694 -205.004 -0.970662 -1.42275 8.02527 0 7.31558 0 0.258965 -3.44355 0.0638372 0 21.7428 0 1.28441 -4.72738 0.120075 0 21.6535 1.9685 -3.12344 17.9497 1.99327 -7.10543e-015 12.49 -1.78429 -2.09194 -1.46498 1.69947 3.56546 21.4407 -0.045508 13.0116 -2.50331 -5.75981 5.86532 0 2.84217e-014 -18.684 6.67071 1.7004 30.0831 0 0 -2.55306 1.44566 6.97273 21.3133 0 0 -3.23077 1.66857 -2.40067 -3.55605 21.4407 -0.045508 -12.0667 -1.01296 -4.64108 -5.86532 0 -2.84217e-014 15.3335 4.21663 -0.106028 -30.0831 0 0 -0.386019 5.14985 -3.57847 -21.3133 0 0 2.07934 5.21516 4.27598 8.92144 0 0 -0.063858 4.70998 -2.3185 1.77636e-015 -39.6329 -2.84217e-014 -2.67542 0.240042 -0.752859 1.77636e-015 -38.0584 -2.84217e-014 4.95702 -9.03397 5.48868 -3.55271e-015 -5.79894 13.3822 -3.97569e-016 0 -1.59028e-015 -8.92144 1.42109e-014 0 1.33642 7.56412 5.66066 0 -39.6329 -2.84217e-014 3.08572 -2.06202 -3.24998 3.55271e-015 -38.0584 0 -6.11978 -7.95282 -17.0889 0 -5.79894 13.3822 -9.93923e-017 -1.59028e-015 -1.59028e-015 
0 0 0 0 0 -0 -12.904 76.8694 -205.004 -0.970383 -1.42473 8.02527 -1.77636e-015 7.31558 0 0.269821 -3.45467 0.0638379 -3.55271e-015 21.7428 0 1.26278 -4.72576 0.120075 0 21.6535 1.9685 -3.11998 17.9604 2.00452 -3.55271e-015 12.49 -1.78429 -2.08129 -1.46505 1.71254 3.56546 21.4407 -0.045508 13.0191 -2.50495 -5.75982 5.86532 0 0 -18.6777 6.65947 1.70036 30.0831 0 0 -2.54659 1.39289 6.9722 21.3133 -2.84217e-014 0 -3.2073 1.61579 -2.4221 -3.55605 21.4407 -0.045508 -12.0521 -0.992109 -4.62804 -5.86532 0 -2.84217e-014 15.3331 4.18313 -0.106023 -30.0831 0 2.84217e-014 -0.398786 5.14468 -3.56913 -21.3133 -2.84217e-014 0 2.11043 5.21044 4.25779 8.92144 1.42109e-014 0 -0.120756 4.75402 -2.19617 -1.77636e-015 -39.6329 0 -2.54742 0.111301 -0.600601 0 -38.0584 -2.84217e-014 4.82912 -8.98917 5.16227 0 -5.79894 13.3822 -5.96354e-016 0 -0 -8.92144 1.42109e-014 2.84217e-014 1.3339 7.55426 5.68695 0 -39.6329 0 3.10042 -2.05391 -3.21646 -3.55271e-015 -38.0584 2.84217e-014 -6.16134 -7.94633 -17.1433 0 -5.79894 13.3822 -2.98177e-016 7.95139e-016 7.95139e-016 
